<?xml version="1.0" encoding="utf-8"?>
<svg version="1.1" xmlns:xlink="http://www.w3.org/1999/xlink" width="12px" height="21px" xmlns="http://www.w3.org/2000/svg">
  <defs>
    <mask fill="white" id="clip27">
      <path d="M 11.604166666666666 9.5771484375  C 11.868055555555557 9.8369140625  12 10.14453125  12 10.5  C 12 10.855468749999998  11.868055555555557 11.163085937499998  11.604166666666666 11.4228515625  L 2.270833333333333 20.6103515625  C 2.0069444444444446 20.8701171875  1.6944444444444446 21  1.3333333333333333 21  C 0.9722222222222223 21  0.6597222222222222 20.8701171875  0.39583333333333337 20.6103515625  C 0.13194444444444445 20.3505859375  0 20.04296875  0 19.6875  L 0 1.3125  C 0 0.9570312499999969  0.13194444444444445 0.6494140624999969  0.39583333333333337 0.3896484375  C 0.6597222222222222 0.12988281249999845  0.9722222222222223 0  1.3333333333333333 0  C 1.6944444444444446 0  2.0069444444444446 0.12988281249999845  2.270833333333333 0.3896484375  L 11.604166666666666 9.5771484375  Z " fill-rule="evenodd" />
    </mask>
  </defs>
  <g transform="matrix(1 0 0 1 -580 -693 )">
    <path d="M 11.604166666666666 9.5771484375  C 11.868055555555557 9.8369140625  12 10.14453125  12 10.5  C 12 10.855468749999998  11.868055555555557 11.163085937499998  11.604166666666666 11.4228515625  L 2.270833333333333 20.6103515625  C 2.0069444444444446 20.8701171875  1.6944444444444446 21  1.3333333333333333 21  C 0.9722222222222223 21  0.6597222222222222 20.8701171875  0.39583333333333337 20.6103515625  C 0.13194444444444445 20.3505859375  0 20.04296875  0 19.6875  L 0 1.3125  C 0 0.9570312499999969  0.13194444444444445 0.6494140624999969  0.39583333333333337 0.3896484375  C 0.6597222222222222 0.12988281249999845  0.9722222222222223 0  1.3333333333333333 0  C 1.6944444444444446 0  2.0069444444444446 0.12988281249999845  2.270833333333333 0.3896484375  L 11.604166666666666 9.5771484375  Z " fill-rule="nonzero" fill="#8c8c8c" stroke="none" transform="matrix(1 0 0 1 580 693 )" />
    <path d="M 11.604166666666666 9.5771484375  C 11.868055555555557 9.8369140625  12 10.14453125  12 10.5  C 12 10.855468749999998  11.868055555555557 11.163085937499998  11.604166666666666 11.4228515625  L 2.270833333333333 20.6103515625  C 2.0069444444444446 20.8701171875  1.6944444444444446 21  1.3333333333333333 21  C 0.9722222222222223 21  0.6597222222222222 20.8701171875  0.39583333333333337 20.6103515625  C 0.13194444444444445 20.3505859375  0 20.04296875  0 19.6875  L 0 1.3125  C 0 0.9570312499999969  0.13194444444444445 0.6494140624999969  0.39583333333333337 0.3896484375  C 0.6597222222222222 0.12988281249999845  0.9722222222222223 0  1.3333333333333333 0  C 1.6944444444444446 0  2.0069444444444446 0.12988281249999845  2.270833333333333 0.3896484375  L 11.604166666666666 9.5771484375  Z " stroke-width="2" stroke="#797979" fill="none" transform="matrix(1 0 0 1 580 693 )" mask="url(#clip27)" />
  </g>
</svg>