<?xml version="1.0" encoding="utf-8"?>
<svg version="1.1" xmlns:xlink="http://www.w3.org/1999/xlink" width="12px" height="21px" xmlns="http://www.w3.org/2000/svg">
  <defs>
    <mask fill="white" id="clip23">
      <path d="M 11.604166666666666 0.3896484375  C 11.868055555555557 0.6494140624999969  12 0.9570312499999969  12 1.3125  L 12 19.6875  C 12 20.04296875  11.868055555555557 20.3505859375  11.604166666666666 20.6103515625  C 11.340277777777779 20.8701171875  11.027777777777779 21  10.666666666666666 21  C 10.305555555555557 21  9.993055555555557 20.8701171875  9.729166666666666 20.6103515625  L 0.39583333333333337 11.4228515625  C 0.13194444444444464 11.163085937499998  0 10.855468749999998  0 10.5  C 0 10.14453125  0.13194444444444464 9.8369140625  0.39583333333333337 9.5771484375  L 9.729166666666666 0.3896484375  C 9.993055555555557 0.12988281249999845  10.305555555555557 0  10.666666666666666 0  C 11.027777777777779 0  11.340277777777779 0.12988281249999845  11.604166666666666 0.3896484375  Z " fill-rule="evenodd" />
    </mask>
  </defs>
  <g transform="matrix(1 0 0 1 -472 -693 )">
    <path d="M 11.604166666666666 0.3896484375  C 11.868055555555557 0.6494140624999969  12 0.9570312499999969  12 1.3125  L 12 19.6875  C 12 20.04296875  11.868055555555557 20.3505859375  11.604166666666666 20.6103515625  C 11.340277777777779 20.8701171875  11.027777777777779 21  10.666666666666666 21  C 10.305555555555557 21  9.993055555555557 20.8701171875  9.729166666666666 20.6103515625  L 0.39583333333333337 11.4228515625  C 0.13194444444444464 11.163085937499998  0 10.855468749999998  0 10.5  C 0 10.14453125  0.13194444444444464 9.8369140625  0.39583333333333337 9.5771484375  L 9.729166666666666 0.3896484375  C 9.993055555555557 0.12988281249999845  10.305555555555557 0  10.666666666666666 0  C 11.027777777777779 0  11.340277777777779 0.12988281249999845  11.604166666666666 0.3896484375  Z " fill-rule="nonzero" fill="#ffffff" stroke="none" transform="matrix(1 0 0 1 472 693 )" />
    <path d="M 11.604166666666666 0.3896484375  C 11.868055555555557 0.6494140624999969  12 0.9570312499999969  12 1.3125  L 12 19.6875  C 12 20.04296875  11.868055555555557 20.3505859375  11.604166666666666 20.6103515625  C 11.340277777777779 20.8701171875  11.027777777777779 21  10.666666666666666 21  C 10.305555555555557 21  9.993055555555557 20.8701171875  9.729166666666666 20.6103515625  L 0.39583333333333337 11.4228515625  C 0.13194444444444464 11.163085937499998  0 10.855468749999998  0 10.5  C 0 10.14453125  0.13194444444444464 9.8369140625  0.39583333333333337 9.5771484375  L 9.729166666666666 0.3896484375  C 9.993055555555557 0.12988281249999845  10.305555555555557 0  10.666666666666666 0  C 11.027777777777779 0  11.340277777777779 0.12988281249999845  11.604166666666666 0.3896484375  Z " stroke-width="2" stroke="#797979" fill="none" transform="matrix(1 0 0 1 472 693 )" mask="url(#clip23)" />
  </g>
</svg>