<?xml version="1.0" encoding="utf-8"?>
<svg version="1.1" xmlns:xlink="http://www.w3.org/1999/xlink" width="311px" height="172px" xmlns="http://www.w3.org/2000/svg">
  <g transform="matrix(1 0 0 1 -98 -354 )">
    <path d="M 98 354  L 409 354  L 409 526  L 98 526  L 98 354  " fill-rule="nonzero" fill="#cccccc" stroke="none" />
    <path d="M 110 366  L 397 366  L 397 514  L 110 514  L 110 366  " fill-rule="nonzero" fill="#ffffff" stroke="none" />
    <path d="M 272.62 405.6  C 265.396 405.6  259.72 399.92400000000004  259.72 392.70000000000005  C 259.72 385.476  265.396 379.8  272.62 379.8  C 279.84400000000005 379.8  285.52000000000004 385.476  285.52000000000004 392.70000000000005  C 285.52000000000004 399.92400000000004  279.84400000000005 405.6  272.62 405.6  " fill-rule="nonzero" fill="#cccccc" stroke="none" />
    <path d="M 115 510  L 115 433.55  L 184.5 398.8  L 281.79999999999995 463.8752411575563  L 337.4 419.65  L 393 463.8752411575563  L 393 510  L 115 510  " fill-rule="nonzero" fill="#169bd5" stroke="none" />
  </g>
</svg>