<?xml version="1.0" encoding="utf-8"?>
<svg version="1.1" xmlns:xlink="http://www.w3.org/1999/xlink" width="311px" height="172px" xmlns="http://www.w3.org/2000/svg">
  <g transform="matrix(1 0 0 1 -615 -354 )">
    <path d="M 615 354  L 926 354  L 926 526  L 615 526  L 615 354  " fill-rule="nonzero" fill="#cccccc" stroke="none" />
    <path d="M 627 366  L 914 366  L 914 514  L 627 514  L 627 366  " fill-rule="nonzero" fill="#ffffff" stroke="none" />
    <path d="M 789.62 405.6  C 782.3960000000001 405.6  776.72 399.92400000000004  776.72 392.70000000000005  C 776.72 385.476  782.3960000000001 379.8  789.62 379.8  C 796.8439999999999 379.8  802.52 385.476  802.52 392.70000000000005  C 802.52 399.92400000000004  796.8439999999999 405.6  789.62 405.6  " fill-rule="nonzero" fill="#cccccc" stroke="none" />
    <path d="M 632 510  L 632 433.55  L 701.5 398.8  L 798.8 463.8752411575563  L 854.4 419.65  L 910 463.8752411575563  L 910 510  L 632 510  " fill-rule="nonzero" fill="#169bd5" stroke="none" />
  </g>
</svg>