<?xml version="1.0" encoding="utf-8"?>
<svg version="1.1" xmlns:xlink="http://www.w3.org/1999/xlink" width="311px" height="172px" xmlns="http://www.w3.org/2000/svg">
  <g transform="matrix(1 0 0 1 -98 -1092 )">
    <path d="M 98 1092  L 409 1092  L 409 1264  L 98 1264  L 98 1092  " fill-rule="nonzero" fill="#cccccc" stroke="none" />
    <path d="M 110 1104  L 397 1104  L 397 1252  L 110 1252  L 110 1104  " fill-rule="nonzero" fill="#ffffff" stroke="none" />
    <path d="M 272.62 1143.6  C 265.396 1143.6  259.72 1137.924  259.72 1130.6999999999998  C 259.72 1123.4759999999999  265.396 1117.8  272.62 1117.8  C 279.84400000000005 1117.8  285.52000000000004 1123.4759999999999  285.52000000000004 1130.6999999999998  C 285.52000000000004 1137.924  279.84400000000005 1143.6  272.62 1143.6  " fill-rule="nonzero" fill="#cccccc" stroke="none" />
    <path d="M 115 1248  L 115 1171.55  L 184.5 1136.8  L 281.79999999999995 1201.8752411575563  L 337.4 1157.65  L 393 1201.8752411575563  L 393 1248  L 115 1248  " fill-rule="nonzero" fill="#169bd5" stroke="none" />
  </g>
</svg>