<?xml version="1.0" encoding="utf-8"?>
<svg version="1.1" xmlns:xlink="http://www.w3.org/1999/xlink" width="311px" height="172px" xmlns="http://www.w3.org/2000/svg">
  <g transform="matrix(1 0 0 1 -611 -1092 )">
    <path d="M 611 1092  L 922 1092  L 922 1264  L 611 1264  L 611 1092  " fill-rule="nonzero" fill="#cccccc" stroke="none" />
    <path d="M 623 1104  L 910 1104  L 910 1252  L 623 1252  L 623 1104  " fill-rule="nonzero" fill="#ffffff" stroke="none" />
    <path d="M 785.62 1143.6  C 778.3960000000001 1143.6  772.72 1137.924  772.72 1130.6999999999998  C 772.72 1123.4759999999999  778.3960000000001 1117.8  785.62 1117.8  C 792.8439999999999 1117.8  798.52 1123.4759999999999  798.52 1130.6999999999998  C 798.52 1137.924  792.8439999999999 1143.6  785.62 1143.6  " fill-rule="nonzero" fill="#cccccc" stroke="none" />
    <path d="M 628 1248  L 628 1171.55  L 697.5 1136.8  L 794.8 1201.8752411575563  L 850.4 1157.65  L 906 1201.8752411575563  L 906 1248  L 628 1248  " fill-rule="nonzero" fill="#169bd5" stroke="none" />
  </g>
</svg>