<?xml version="1.0" encoding="utf-8"?>
<svg version="1.1" xmlns:xlink="http://www.w3.org/1999/xlink" width="38px" height="36px" xmlns="http://www.w3.org/2000/svg">
  <g transform="matrix(1 0 0 1 -862 -201 )">
    <path d="M 37.10437710437711 26.909090909090907  C 37.70145903479237 27.47474747474747  38 28.16161616161616  38 28.96969696969697  C 38 29.777777777777782  37.70145903479237 30.464646464646464  37.10437710437711 31.030303030303028  L 32.754208754208754 35.15151515151515  C 32.1571268237935 35.717171717171716  31.432098765432098 36  30.579124579124578 36  C 29.726150392817065 36  29.001122334455673 35.717171717171716  28.404040404040405 35.15151515151515  L 19 26.242424242424246  L 9.595959595959597 35.15151515151515  C 8.998877665544333 35.717171717171716  8.27384960718294 36  7.42087542087542 36  C 6.567901234567902 36  5.842873176206511 35.717171717171716  5.245791245791247 35.15151515151515  L 0.8956228956228957 31.030303030303028  C 0.2985409652076322 30.464646464646464  0 29.777777777777782  0 28.96969696969697  C 0 28.16161616161616  0.2985409652076322 27.47474747474747  0.8956228956228957 26.909090909090907  L 10.2996632996633 18  L 0.8956228956228957 9.09090909090909  C 0.2985409652076322 8.525252525252522  0 7.838383838383839  0 7.03030303030303  C 0 6.222222222222221  0.2985409652076322 5.53535353535353  0.8956228956228957 4.969696969696971  L 5.245791245791247 0.8484848484848486  C 5.842873176206511 0.28282828282828154  6.567901234567902 0  7.42087542087542 0  C 8.27384960718294 0  8.998877665544333 0.28282828282828154  9.595959595959597 0.8484848484848486  L 19 9.75757575757576  L 28.404040404040405 0.8484848484848486  C 29.001122334455673 0.28282828282828154  29.726150392817065 0  30.579124579124578 0  C 31.432098765432098 0  32.1571268237935 0.28282828282828154  32.754208754208754 0.8484848484848486  L 37.10437710437711 4.969696969696971  C 37.70145903479237 5.53535353535353  38 6.222222222222221  38 7.03030303030303  C 38 7.838383838383839  37.70145903479237 8.525252525252522  37.10437710437711 9.09090909090909  L 27.7003367003367 18  L 37.10437710437711 26.909090909090907  Z " fill-rule="nonzero" fill="#ffffff" stroke="none" transform="matrix(1 0 0 1 862 201 )" />
  </g>
</svg>