<?xml version="1.0" encoding="utf-8"?>
<svg version="1.1" xmlns:xlink="http://www.w3.org/1999/xlink" width="160px" height="50px" xmlns="http://www.w3.org/2000/svg">
  <defs>
    <mask fill="white" id="clip22">
      <path d="M 0 43.75  L 0 6.25  C 0 2.750000000000057  2.514285714285701 0  5.7142857142857135 0  L 154.28571428571428 0  C 157.4857142857143 0  160 2.750000000000057  160 6.25  L 160 43.75  C 160 47.24999999999994  157.4857142857143 50  154.28571428571428 50  L 140.64285714285649 50  L 5.7142857142857135 50  C 2.514285714285701 50  0 47.24999999999994  0 43.75  Z " fill-rule="evenodd" />
    </mask>
  </defs>
  <g transform="matrix(1 0 0 1 -168 -566 )">
    <path d="M 0 43.75  L 0 6.25  C 0 2.750000000000057  2.514285714285701 0  5.7142857142857135 0  L 154.28571428571428 0  C 157.4857142857143 0  160 2.750000000000057  160 6.25  L 160 43.75  C 160 47.24999999999994  157.4857142857143 50  154.28571428571428 50  L 140.64285714285649 50  L 5.7142857142857135 50  C 2.514285714285701 50  0 47.24999999999994  0 43.75  Z " fill-rule="nonzero" fill="#ffffff" stroke="none" fill-opacity="0" transform="matrix(1 0 0 1 168 566 )" />
    <path d="M 0 43.75  L 0 6.25  C 0 2.750000000000057  2.514285714285701 0  5.7142857142857135 0  L 154.28571428571428 0  C 157.4857142857143 0  160 2.750000000000057  160 6.25  L 160 43.75  C 160 47.24999999999994  157.4857142857143 50  154.28571428571428 50  L 140.64285714285649 50  L 5.7142857142857135 50  C 2.514285714285701 50  0 47.24999999999994  0 43.75  Z " stroke-width="2" stroke="#333333" fill="none" transform="matrix(1 0 0 1 168 566 )" mask="url(#clip22)" />
  </g>
</svg>