<?xml version="1.0" encoding="utf-8"?>
<svg version="1.1" xmlns:xlink="http://www.w3.org/1999/xlink" width="50px" height="50px" xmlns="http://www.w3.org/2000/svg">
  <g transform="matrix(1 0 0 1 -586 -303 )">
    <path d="M 2.766927083333333 0  L 47.23307291666667 0  C 47.992621527777786 0  48.64366319444445 0.2712673611111105  49.18619791666667 0.8138020833333315  C 49.728732638888886 1.3563368055555525  50 2.007378472222215  50 2.7669270833333313  L 50 47.23307291666667  C 50 47.99262152777777  49.728732638888886 48.64366319444444  49.18619791666667 49.18619791666667  C 48.64366319444445 49.72873263888889  47.992621527777786 50  47.23307291666667 50  L 34 50  L 34 30.631510416666664  L 40.98307291666667 30.631510416666664  L 41.95963541666667 23.079427083333332  L 34.50520833333333 23.079427083333332  L 34.50520833333333 18.26171875  C 34.50520833333333 17.046440972222214  34.760199652777786 16.134982638888886  35.27018229166667 15.52734375  C 35.78016493055556 14.91970486111111  36.77300347222223 14.615885416666668  38.24869791666667 14.615885416666668  L 42.22005208333333 14.583333333333332  L 42.22005208333333 7.845052083333331  C 40.85286458333333 7.649739583333331  38.92144097222223 7.552083333333331  36.42578125 7.552083333333331  C 33.474392361111114 7.552083333333331  31.114366319444446 8.420138888888884  29.345703125 10.15625  C 27.577039930555557 11.89236111111111  26.692708333333332 14.344618055555552  26.692708333333332 17.513020833333332  L 26.692708333333332 23.079427083333332  L 20.182291666666664 23.079427083333332  L 20.182291666666664 30.631510416666664  L 26 30.631510416666664  L 26 50  L 2.766927083333333 50  C 2.0073784722222223 50  1.3563368055555558 49.72873263888889  0.8138020833333334 49.18619791666667  C 0.27126736111111105 48.64366319444444  0 47.99262152777777  0 47.23307291666667  L 0 2.7669270833333313  C 0 2.007378472222215  0.27126736111111105 1.3563368055555525  0.8138020833333334 0.8138020833333315  C 1.3563368055555558 0.2712673611111105  2.0073784722222223 0  2.766927083333333 0  Z " fill-rule="nonzero" fill="#ffffff" stroke="none" transform="matrix(1 0 0 1 586 303 )" />
  </g>
</svg>