<?xml version="1.0" encoding="utf-8"?>
<svg version="1.1" xmlns:xlink="http://www.w3.org/1999/xlink" width="50px" height="50px" xmlns="http://www.w3.org/2000/svg">
  <g transform="matrix(1 0 0 1 -664 -784 )">
    <path d="M 46.41927083333333 30.48377403846154  C 46.58420138888889 30.293469551282048  46.666666666666664 30.068108974358974  46 29.807692307692307  L 46 4.8076923076923075  C 46.666666666666664 4.547275641025639  46.58420138888889 4.32191506410256  46.41927083333333 4.131610576923078  C 46.254340277777786 3.941306089743585  46.059027777777786 3.8461538461538436  45.83333333333333 4  L 4.166666666666666 4  C 3.9409722222222228 3.8461538461538436  3.7456597222222228 3.941306089743585  3.5807291666666665 4.131610576923078  C 3.4157986111111116 4.32191506410256  3.3333333333333335 4.547275641025639  4 4.8076923076923075  L 4 29.807692307692307  C 3.3333333333333335 30.068108974358974  3.4157986111111116 30.293469551282048  3.5807291666666665 30.48377403846154  C 3.7456597222222228 30.674078525641026  3.9409722222222228 30.76923076923077  4.166666666666666 30  L 45.83333333333333 30  C 46.059027777777786 30.76923076923077  46.254340277777786 30.674078525641026  46.41927083333333 30.48377403846154  Z M 48.776041666666664 1.4122596153846145  C 49.59201388888889 2.353766025641024  50.000000000000014 3.4855769230769216  50 4.8076923076923075  L 50 37.5  C 50.000000000000014 38.82211538461539  49.59201388888889 39.95392628205128  48.776041666666664 40.89543269230769  C 47.96006944444445 41.836939102564095  46.979166666666664 42.30769230769231  45.83333333333333 42  L 31.666666666666664 42  C 31.666666666666664 43.048878205128204  31.80555555555556 43.82512019230769  32.083333333333336 44.636418269230774  C 32.361111111111114 45.44771634615385  32.63888888888889 46.15885416666667  32.916666666666664 46.769831730769226  C 33.19444444444445 47.380809294871796  33.33333333333333 47.81650641025641  33.33333333333333 48.07692307692308  C 33.33333333333333 48.59775641025641  33.16840277777778 49.04847756410256  32.838541666666664 49.42908653846153  C 32.50868055555556 49.80969551282052  32.11805555555556 50  31.666666666666664 50  L 18.333333333333332 50  C 17.881944444444446 50  17.491319444444446 49.80969551282052  17.161458333333332 49.42908653846153  C 16.83159722222222 49.04847756410256  16.666666666666664 48.59775641025641  16.666666666666664 48.07692307692308  C 16.666666666666664 47.796474358974365  16.805555555555557 47.355769230769226  17.083333333333332 46.75480769230769  C 17.361111111111114 46.15384615384615  17.63888888888889 45.452724358974365  17.916666666666668 44.65144230769231  C 18.194444444444446 43.850160256410255  18.333333333333332 43.068910256410255  18.333333333333332 42  L 4.166666666666666 42  C 3.0208333333333335 42.30769230769231  2.039930555555556 41.836939102564095  1.2239583333333333 40.89543269230769  C 0.40798611111111116 39.95392628205128  0 38.82211538461539  0 37.5  L 0 4.8076923076923075  C 0 3.4855769230769216  0.40798611111111116 2.353766025641024  1.2239583333333333 1.4122596153846145  C 2.039930555555556 0.47075320512820484  3.0208333333333335 0  4.166666666666666 0  L 45.83333333333333 0  C 46.979166666666664 0  47.96006944444445 0.47075320512820484  48.776041666666664 1.4122596153846145  Z " fill-rule="nonzero" fill="#ffffff" stroke="none" transform="matrix(1 0 0 1 664 784 )" />
  </g>
</svg>