<?xml version="1.0" encoding="utf-8"?>
<svg version="1.1" xmlns:xlink="http://www.w3.org/1999/xlink" width="50px" height="50px" xmlns="http://www.w3.org/2000/svg">
  <g transform="matrix(1 0 0 1 -742 -784 )">
    <path d="M 30.891927083333332 30.891927083333336  C 32.51953125 29.264322916666664  33.33333333333333 27.30034722222222  33.33333333333333 25  C 33.33333333333333 22.699652777777775  32.51953125 20.735677083333332  30.891927083333332 19.108072916666668  C 29.264322916666668 17.48046875  27.300347222222225 16.666666666666668  25 16.666666666666668  C 22.69965277777778 16.666666666666668  20.735677083333336 17.48046875  19.108072916666664 19.108072916666668  C 17.48046875 20.735677083333332  16.666666666666664 22.699652777777775  16.666666666666664 25  C 16.666666666666664 27.30034722222222  17.48046875 29.264322916666664  19.108072916666664 30.891927083333336  C 20.735677083333336 32.51953125  22.69965277777778 33.333333333333336  25 33.333333333333336  C 27.300347222222225 33.333333333333336  29.264322916666668 32.51953125  30.891927083333332 30.891927083333336  Z M 34.08203125 15.91796875  C 36.57769097222223 18.413628472222214  37.82552083333333 21.440972222222214  37.82552083333333 25  C 37.82552083333333 28.55902777777778  36.57769097222223 31.58637152777778  34.08203125 34.08203125  C 31.58637152777778 36.57769097222222  28.55902777777778 37.82552083333333  25 37.82552083333333  C 21.440972222222225 37.82552083333333  18.413628472222225 36.57769097222222  15.91796875 34.08203125  C 13.422309027777779 31.58637152777778  12.174479166666668 28.55902777777778  12.174479166666668 25  C 12.174479166666668 21.440972222222214  13.422309027777779 18.413628472222214  15.91796875 15.91796875  C 18.413628472222225 13.422309027777773  21.440972222222225 12.174479166666668  25 12.174479166666668  C 28.55902777777778 12.174479166666668  31.58637152777778 13.422309027777773  34.08203125 15.91796875  Z M 40.46223958333333 9.537760416666668  C 41.04817708333333 10.123697916666668  41.34114583333333 10.828993055555552  41.34114583333333 11.653645833333332  C 41.34114583333333 12.47829861111111  41.04817708333333 13.18359375  40.46223958333333 13.76953125  C 39.87630208333333 14.35546875  39.17100694444445 14.6484375  38.34635416666667 14.6484375  C 37.52170138888889 14.6484375  36.81640625 14.35546875  36.23046875 13.76953125  C 35.64453125 13.18359375  35.3515625 12.47829861111111  35.3515625 11.653645833333332  C 35.3515625 10.828993055555552  35.64453125 10.123697916666668  36.23046875 9.537760416666668  C 36.81640625 8.951822916666668  37.52170138888889 8.658854166666668  38.34635416666667 8.658854166666668  C 39.17100694444445 8.658854166666668  39.87630208333333 8.951822916666668  40.46223958333333 9.537760416666668  Z M 27.490234375 4.475911458333331  C 25.981987847222225 4.486762152777773  25.151909722222225 4.4921875  25 4.4921875  C 24.84809027777778 4.4921875  24.01801215277778 4.486762152777773  22.509765625 4.475911458333331  C 21.001519097222225 4.465060763888884  19.856770833333336 4.465060763888884  19.075520833333336 4.475911458333331  C 18.294270833333336 4.486762152777773  17.247178819444446 4.519314236111111  15.934244791666666 4.573567708333331  C 14.621310763888893 4.627821180555553  13.503689236111112 4.736328125  12.581380208333334 4.899088541666669  C 11.659071180555557 5.061848958333331  10.883246527777779 5.262586805555553  10.25390625 5.501302083333331  C 9.168836805555557 5.935329861111111  8.213975694444445 6.564670138888884  7.389322916666667 7.389322916666669  C 6.564670138888889 8.213975694444443  5.935329861111112 9.168836805555552  5.501302083333334 10.25390625  C 5.262586805555556 10.883246527777773  5.061848958333334 11.659071180555552  4.899088541666666 12.581380208333332  C 4.736328125 13.50368923611111  4.627821180555556 14.621310763888884  4.573567708333334 15.934244791666668  C 4.519314236111112 17.247178819444443  4.486762152777779 18.294270833333332  4.475911458333334 19.075520833333332  C 4.465060763888889 19.856770833333332  4.465060763888889 21.001519097222214  4.475911458333334 22.509765625  C 4.486762152777779 24.018012152777775  4.4921875 24.848090277777775  4.4921875 25  C 4.4921875 25.15190972222222  4.486762152777779 25.98198784722222  4.475911458333334 27.490234375  C 4.465060763888889 28.99848090277778  4.465060763888889 30.143229166666664  4.475911458333334 30.924479166666664  C 4.486762152777779 31.705729166666664  4.519314236111112 32.75282118055555  4.573567708333334 34.065755208333336  C 4.627821180555556 35.37868923611111  4.736328125 36.496310763888886  4.899088541666666 37.418619791666664  C 5.061848958333334 38.34092881944444  5.262586805555556 39.116753472222214  5.501302083333334 39.74609375  C 5.935329861111112 40.83116319444444  6.564670138888889 41.78602430555556  7.389322916666667 42.61067708333333  C 8.213975694444445 43.43532986111111  9.168836805555557 44.06467013888889  10.25390625 44.49869791666667  C 10.883246527777779 44.73741319444444  11.659071180555557 44.93815104166667  12.581380208333334 45.10091145833333  C 13.503689236111112 45.263671875  14.621310763888893 45.37217881944444  15.934244791666666 45.42643229166667  C 17.247178819444446 45.48068576388889  18.294270833333336 45.51323784722223  19.075520833333336 45.52408854166667  C 19.856770833333336 45.53493923611111  21.001519097222225 45.53493923611111  22.509765625 45.52408854166667  C 24.01801215277778 45.51323784722223  24.84809027777778 45.5078125  25 45.5078125  C 25.151909722222225 45.5078125  25.981987847222225 45.51323784722223  27.490234375 45.52408854166667  C 28.99848090277778 45.53493923611111  30.143229166666668 45.53493923611111  30.924479166666668 45.52408854166667  C 31.705729166666668 45.51323784722223  32.75282118055556 45.48068576388889  34.06575520833333 45.42643229166667  C 35.378689236111114 45.37217881944444  36.49631076388889 45.263671875  37.41861979166667 45.10091145833333  C 38.34092881944445 44.93815104166667  39.11675347222223 44.73741319444444  39.74609375 44.49869791666667  C 40.83116319444445 44.06467013888889  41.78602430555556 43.43532986111111  42.61067708333333 42.61067708333333  C 43.435329861111114 41.78602430555556  44.06467013888889 40.83116319444444  44.49869791666667 39.74609375  C 44.73741319444445 39.116753472222214  44.93815104166667 38.34092881944444  45.10091145833333 37.418619791666664  C 45.263671875 36.496310763888886  45.37217881944445 35.37868923611111  45.42643229166667 34.065755208333336  C 45.48068576388889 32.75282118055555  45.51323784722223 31.705729166666664  45.52408854166667 30.924479166666664  C 45.534939236111114 30.143229166666664  45.534939236111114 28.99848090277778  45.52408854166667 27.490234375  C 45.51323784722223 25.98198784722222  45.5078125 25.15190972222222  45.5078125 25  C 45.5078125 24.848090277777775  45.51323784722223 24.018012152777775  45.52408854166667 22.509765625  C 45.534939236111114 21.001519097222214  45.534939236111114 19.856770833333332  45.52408854166667 19.075520833333332  C 45.51323784722223 18.294270833333332  45.48068576388889 17.247178819444443  45.42643229166667 15.934244791666668  C 45.37217881944445 14.621310763888884  45.263671875 13.50368923611111  45.10091145833333 12.581380208333332  C 44.93815104166667 11.659071180555552  44.73741319444445 10.883246527777773  44.49869791666667 10.25390625  C 44.06467013888889 9.168836805555552  43.435329861111114 8.213975694444443  42.61067708333333 7.389322916666669  C 41.78602430555556 6.564670138888884  40.83116319444445 5.935329861111111  39.74609375 5.501302083333331  C 39.11675347222223 5.262586805555553  38.34092881944445 5.061848958333331  37.41861979166667 4.899088541666669  C 36.49631076388889 4.736328125  35.378689236111114 4.627821180555553  34.06575520833333 4.573567708333331  C 32.75282118055556 4.519314236111111  31.705729166666668 4.486762152777773  30.924479166666668 4.475911458333331  C 30.143229166666668 4.465060763888884  28.99848090277778 4.465060763888884  27.490234375 4.475911458333331  Z M 49.83723958333333 14.680989583333332  C 49.94574652777777 16.590711805555554  50 20.030381944444443  50 25  C 50 29.969618055555557  49.94574652777777 33.40928819444444  49.83723958333333 35.319010416666664  C 49.62022569444445 39.83289930555556  48.27473958333333 43.32682291666667  45.80078125 45.80078125  C 43.32682291666667 48.27473958333333  39.83289930555556 49.62022569444444  35.31901041666667 49.83723958333333  C 33.40928819444445 49.94574652777777  29.969618055555557 50  25 50  C 20.030381944444446 50  16.590711805555554 49.94574652777777  14.680989583333334 49.83723958333333  C 10.167100694444446 49.62022569444444  6.673177083333334 48.27473958333333  4.19921875 45.80078125  C 1.7252604166666667 43.32682291666667  0.3797743055555556 39.83289930555556  0.16276041666666669 35.319010416666664  C 0.05425347222222222 33.40928819444444  0 29.969618055555557  0 25  C 0 20.030381944444443  0.05425347222222222 16.590711805555554  0.16276041666666669 14.680989583333332  C 0.3797743055555556 10.167100694444443  1.7252604166666667 6.673177083333331  4.19921875 4.19921875  C 6.673177083333334 1.7252604166666685  10.167100694444446 0.37977430555555247  14.680989583333334 0.16276041666666852  C 16.590711805555554 0.05425347222221544  20.030381944444446 0  25 0  C 29.969618055555557 0  33.40928819444445 0.05425347222221544  35.31901041666667 0.16276041666666852  C 39.83289930555556 0.37977430555555247  43.32682291666667 1.7252604166666685  45.80078125 4.19921875  C 48.27473958333333 6.673177083333331  49.62022569444445 10.167100694444443  49.83723958333333 14.680989583333332  Z " fill-rule="nonzero" fill="#ffffff" stroke="none" transform="matrix(1 0 0 1 742 784 )" />
  </g>
</svg>